<?xml version="1.0" standalone="no"?><!DOCTYPE svg PUBLIC "-//W3C//DTD SVG 1.1//EN" "http://www.w3.org/Graphics/SVG/1.1/DTD/svg11.dtd"><svg t="1746862576407" class="icon" viewBox="0 0 1024 1024" version="1.1" xmlns="http://www.w3.org/2000/svg" p-id="1595" width="48" height="48" xmlns:xlink="http://www.w3.org/1999/xlink"><path d="M817.8944 251.904H522.0352V125.184a62.7968 62.7968 0 0 0 52.7872-62.208c0-34.7904-27.904-62.976-62.3872-62.976-34.432 0-62.3616 28.1856-62.3616 62.976 0 31.488 22.8864 57.5744 52.7872 62.208v126.72H205.6192a28.928 28.928 0 0 0-28.8 29.056v437.8624a28.928 28.928 0 0 0 28.8 29.0816h183.04v60.0576h-62.3872a28.928 28.928 0 0 0-28.8 29.056v157.9264A28.928 28.928 0 0 0 326.272 1024h370.432a28.928 28.928 0 0 0 28.8-29.056v-157.9264a28.928 28.928 0 0 0-28.8-29.056h-62.3872v-60.0576h183.552a28.928 28.928 0 0 0 28.8-29.0816V280.96a28.928 28.928 0 0 0-28.7744-29.0816zM359.8592 562.8416c-34.4576 0-62.3872-28.1856-62.3872-62.976 0-34.7648 27.9296-62.976 62.3872-62.976 34.4576 0 62.3872 28.2112 62.3872 62.976 0 34.7904-27.9296 62.976-62.3872 62.976z m305.1776 0c-34.4576 0-62.3872-28.1856-62.3872-62.976 0-34.7648 27.9296-62.976 62.3872-62.976 34.4576 0 62.3872 28.2112 62.3872 62.976 0 34.7904-27.9296 62.976-62.3872 62.976zM0 499.8912c0 66.8928 53.76 121.088 120.064 121.088v-242.176c-66.304 0-120.064 54.2208-120.064 121.088z m903.936-121.088v242.176c66.304 0 120.064-54.1952 120.064-121.088 0-66.8928-53.76-121.088-120.064-121.088z" fill="#09CCB2" p-id="1596" data-spm-anchor-id="a313x.search_index.0.i0.632b3a81fV7uoK"></path></svg>