<?xml version="1.0" standalone="no"?><!DOCTYPE svg PUBLIC "-//W3C//DTD SVG 1.1//EN" "http://www.w3.org/Graphics/SVG/1.1/DTD/svg11.dtd"><svg t="1753848232946" class="icon" viewBox="0 0 1024 1024" version="1.1" xmlns="http://www.w3.org/2000/svg" p-id="38505" xmlns:xlink="http://www.w3.org/1999/xlink" width="1024" height="1024"><path d="M512.068267 0C229.239467 0 0 229.205333 0 512s229.239467 512 512.068267 512C794.897067 1024 1024 794.658133 1024 511.863467S794.624 0 512.068267 0z m244.804266 409.3952l-196.778666 193.4336-95.300267 93.184a16.315733 16.315733 0 0 1-1.501867 1.6384l-2.4576 2.218667a31.607467 31.607467 0 0 1-22.050133 8.772266h-1.365333a31.709867 31.709867 0 0 1-22.6304-9.147733l-2.389334-2.082133a12.424533 12.424533 0 0 1-1.2288-1.365334L252.245333 537.122133c-12.868267-12.868267-11.9808-34.645333 1.877334-48.503466 7.031467-7.0656 16.452267-11.025067 25.975466-11.025067 8.669867 0 16.725333 3.208533 22.664534 9.147733l135.406933 135.406934 71.918933-70.314667 196.949334-193.4336a31.6416 31.6416 0 0 1 22.357333-8.874667c9.659733 0 19.217067 4.061867 26.282667 11.264 13.585067 14.097067 14.336 35.84 1.194666 48.605867z" fill="#07C160" p-id="38506"></path></svg>