<?xml version="1.0" standalone="no"?><!DOCTYPE svg PUBLIC "-//W3C//DTD SVG 1.1//EN" "http://www.w3.org/Graphics/SVG/1.1/DTD/svg11.dtd"><svg t="1753843455014" class="icon" viewBox="0 0 1024 1024" version="1.1" xmlns="http://www.w3.org/2000/svg" p-id="28600" xmlns:xlink="http://www.w3.org/1999/xlink" width="1024" height="1024"><path d="M0 512c0 282.624 229.376 512 512 512s512-229.376 512-512S794.624 0 512 0 0 229.376 0 512z" fill="#333333" p-id="28601"></path><path d="M571.392 417.28v-17.408c0-2.56 2.048-4.608 4.608-4.608h77.312c2.56 0 4.608 2.048 4.608 4.608V414.72c0 2.56-2.048 5.632-5.632 10.752l-39.936 57.344c14.848 0 30.72 2.048 44.032 9.728 3.072 1.536 4.096 4.096 4.096 6.656v18.432c0 2.56-2.56 5.632-5.632 4.096-24.064-12.288-55.296-13.824-81.92 0-2.56 1.536-5.632-1.536-5.632-4.096v-17.408c0-2.56 0-7.68 3.072-11.776l46.592-66.56h-40.448c-2.56 0-4.608-1.536-4.608-4.608z m-282.624 108.032h-23.552c-2.048 0-4.096-2.048-4.096-4.096V400.384c0-2.56 2.048-4.608 4.608-4.608h22.016c2.048 0 4.096 2.048 4.096 4.096v15.872c5.632-15.36 16.384-22.528 31.232-22.528s24.064 7.168 30.72 22.528c5.632-15.36 18.944-22.528 32.768-22.528s20.48 4.096 27.136 13.312c7.68 10.24 6.144 25.088 6.144 37.888v76.288c0 2.56-2.048 4.608-4.608 4.608h-23.552c-2.56 0-4.096-2.048-4.096-4.096V457.216c0-5.12 0-17.92-0.512-22.528-1.536-8.192-7.168-10.24-13.824-10.24s-11.776 3.584-13.824 9.728c-2.56 6.144-2.048 16.384-2.048 23.04v64c0 2.56-2.048 4.608-4.608 4.608h-23.552c-2.56 0-4.096-2.048-4.096-4.096V457.728c0-13.312 2.048-33.28-14.336-33.28s-16.384 19.456-16.384 33.28v64c0 2.56-2.048 4.608-4.608 4.608z m435.712-132.096c34.816 0 53.76 30.208 53.76 68.096s-20.992 66.048-53.76 66.048-53.248-30.208-53.248-67.584 18.944-67.072 53.248-67.072z m0 24.576c-17.408 0-18.432 23.552-18.432 38.4s0 46.08 18.432 46.08 18.944-25.6 18.944-40.96 0-22.528-3.584-32.256c-2.56-8.192-7.68-11.776-15.36-11.776z m99.328 107.52h-23.552c-2.56 0-4.096-2.048-4.096-4.096V400.384c0-2.048 2.048-4.096 4.608-4.096h22.016c2.048 0 3.584 1.536 4.096 3.584v18.432c6.656-16.384 15.872-24.576 32.256-24.576s20.992 3.584 27.648 14.336c6.144 9.728 6.144 26.112 6.144 37.888V522.24c0 2.048-2.048 3.584-4.608 3.584h-23.552c-2.048 0-4.096-1.536-4.096-3.584V456.704c0-13.312 1.536-32.768-14.848-32.768s-10.752 3.584-13.824 9.728c-3.072 7.168-3.584 14.848-3.584 23.04v65.024c0 2.56-2.048 4.608-4.608 4.608zM242.688 502.784c-4.096-6.144-8.704-10.752-8.704-22.016v-36.864c0-15.36 1.024-29.696-10.24-40.448-9.216-8.704-24.064-11.776-35.328-11.776-22.528 0-47.616 8.192-52.736 35.84-0.512 3.072 1.536 4.608 3.584 5.12l23.04 2.56c2.048 0 3.584-2.048 4.096-4.096 2.048-9.728 9.728-14.336 18.944-14.336s10.24 2.048 13.312 6.144c3.072 4.608 3.072 11.264 3.072 16.896v3.072c-13.824 1.536-31.744 2.56-44.544 8.192-14.848 6.144-25.088 19.456-25.088 38.4s15.36 36.864 35.328 36.864 26.112-4.096 38.912-16.896c4.096 6.144 5.632 9.216 13.312 15.872 1.536 1.024 4.096 1.024 5.632-0.512 4.608-4.096 13.312-11.776 17.92-15.36 2.048-1.536 1.536-4.096 0-6.144z m-46.592-10.24c-3.584 6.656-9.728 10.752-16.384 10.752S165.376 496.64 165.376 486.4c0-19.968 17.92-23.552 34.816-23.552v5.12c0 9.216 0 16.896-4.608 25.088z m355.328 10.24c-4.096-6.144-8.704-10.752-8.704-22.016v-36.864c0-15.36 1.024-29.696-10.24-40.448-9.216-8.704-24.064-11.776-35.328-11.776-22.528 0-47.616 8.192-52.736 35.84-0.512 3.072 1.536 4.608 3.584 5.12l23.04 2.56c2.048 0 3.584-2.048 4.096-4.096 2.048-9.728 9.728-14.336 18.944-14.336s10.24 2.048 13.312 6.144c3.072 4.608 3.072 11.264 3.072 16.896v3.072c-13.824 1.536-31.744 2.56-44.032 8.192-14.848 6.144-25.088 19.456-25.088 38.4s15.36 36.864 35.328 36.864 26.112-4.096 38.912-16.896c4.096 6.144 5.632 9.216 13.312 15.872 1.536 1.024 4.096 1.024 5.632-0.512 4.608-4.096 13.312-11.776 17.92-15.36 2.048-1.536 1.536-4.096 0-6.144z m-46.08-10.24c-3.584 6.656-9.728 10.752-16.384 10.752S474.624 496.64 474.624 486.4c0-19.968 17.92-23.552 34.816-23.552v5.12c0 9.216 0 16.896-4.608 25.088zM603.136 572.416c-45.056 32.256-107.52 49.664-162.816 49.664s-146.432-28.16-199.68-75.776c-5.12-4.608-1.536-9.728 4.608-6.144 57.856 33.28 126.976 53.248 199.68 53.248s100.864-9.728 150.528-30.72c10.752-4.608 15.36 5.12 7.68 10.752z" fill="#FFFFFF" p-id="28602"></path><path d="M622.08 550.4c-5.632-7.168-37.376-3.584-51.712-1.536-4.096 0.512-5.12-3.072-1.024-6.144 25.088-17.92 67.072-12.8 71.68-6.656 4.608 6.144-1.536 47.616-25.088 67.584-3.584 3.072-7.168 1.536-5.632-2.56 5.12-13.312 17.408-43.008 11.776-50.688z" fill="#FFFFFF" p-id="28603"></path></svg>