<?xml version="1.0" standalone="no"?><!DOCTYPE svg PUBLIC "-//W3C//DTD SVG 1.1//EN" "http://www.w3.org/Graphics/SVG/1.1/DTD/svg11.dtd"><svg t="1746862754102" class="icon" viewBox="0 0 1024 1024" version="1.1" xmlns="http://www.w3.org/2000/svg" p-id="12191" xmlns:xlink="http://www.w3.org/1999/xlink" width="48" height="48"><path d="M512 512m-512 0a512 512 0 1 0 1024 0 512 512 0 1 0-1024 0Z" fill="#1BA060" p-id="12192"></path><path d="M512 984.64A472.64 472.64 0 1 1 512 39.36a472.64 472.64 0 0 1 0 945.28zM377.28 544.128l6.528 21.76h27.392l-36.608-112h-13.952l-0.064 0.128v-0.064h-13.952l-36.48 112h27.328l6.464-21.76h33.28z m-27.328-19.968l10.368-34.752h0.512l10.432 34.752h-21.312z m161.024-70.208h-26.112v72.576c0 7.04-1.728 12.224-5.248 15.744a19.904 19.904 0 0 1-14.72 5.248 20.352 20.352 0 0 1-14.912-5.312c-3.584-3.52-5.376-8.768-5.376-15.68V453.952h-26.112v72.576c0 12.8 4.288 22.848 12.8 30.08 8.64 7.296 19.84 10.88 33.6 10.88a49.536 49.536 0 0 0 33.28-10.88c8.512-7.232 12.8-17.28 12.8-30.08V453.952z m95.168 19.968v-19.968H521.408v19.968h29.12v92.032h25.984V473.92h29.632z m103.616 46.08V499.84a46.592 46.592 0 0 0-13.248-34.048 46.016 46.016 0 0 0-34.304-13.44 46.08 46.08 0 0 0-34.432 13.44 46.72 46.72 0 0 0-13.184 34.048v20.16c0 13.824 4.416 25.152 13.184 34.112 8.832 8.96 20.352 13.44 34.56 13.44 14.08 0 25.536-4.48 34.304-13.44a46.784 46.784 0 0 0 13.12-34.112z m-25.984-20.288v20.288c0 8.128-1.856 14.72-5.568 19.84a18.496 18.496 0 0 1-15.872 7.68 18.88 18.88 0 0 1-16.192-7.68 32.64 32.64 0 0 1-5.632-19.84v-20.288a32.64 32.64 0 0 1 5.568-19.776 18.688 18.688 0 0 1 16.128-7.68c6.848 0 12.16 2.56 16 7.744 3.712 5.12 5.568 11.712 5.568 19.712z" fill="#0DD977" p-id="12193"></path><path d="M509.312 215.232a286.72 286.72 0 0 1 119.808 26.176l-27.584 48.192 139.712-0.64-70.208-120.576-24.448 42.624a319.36 319.36 0 0 0-137.28-30.72 321.92 321.92 0 0 0-321.408 321.344c0 64.32 18.88 126.464 54.848 179.904l28.992-19.52a286.848 286.848 0 0 1 237.568-446.784z m292.736 154.048l-31.808 14.272c16.768 37.056 25.472 76.864 25.472 118.08a286.848 286.848 0 0 1-380.032 270.72l23.424-45.44-139.392 7.04 75.776 117.376 24.448-47.488a321.92 321.92 0 0 0 431.04-302.144 324.928 324.928 0 0 0-28.928-132.48z" fill="#FFFFFF" p-id="12194"></path></svg>