<?xml version="1.0" standalone="no"?><!DOCTYPE svg PUBLIC "-//W3C//DTD SVG 1.1//EN" "http://www.w3.org/Graphics/SVG/1.1/DTD/svg11.dtd"><svg t="1753928410034" class="icon" viewBox="0 0 1877 1024" version="1.1" xmlns="http://www.w3.org/2000/svg" p-id="12854" xmlns:xlink="http://www.w3.org/1999/xlink" width="1877" height="1024"><path d="M686.201363 402.276504c-1.835615-77.09203-68.832711-91.776948-68.832711-91.776948s-52.317867-0.419081-120.362667-0.768l49.353956-47.830282s7.954963-9.790578-5.506845-20.803318c-13.458015-11.013689-14.186193-6.117452-18.717392-3.057778-4.124444 2.783763-63.300267 61.041778-73.882548 71.470459-32.636207-0.128948-66.72403-0.220919-99.047349-0.233244l26.585126-0.003793s-70.97363-70.011259-75.504829-73.069037c-4.5312-3.059674-5.25843-7.955911-18.719289 3.057778-13.459911 11.013689-5.506844 20.804267-5.506845 20.804266l50.783763 49.21363h2.813156c-56.318104 0.039822-104.860444 0.363141-127.124859 1.219319-71.586133 20.190815-66.078341 91.776948-66.078341 91.776948s0.916859 153.2672-0.097659 230.820029c7.702756 77.550933 67.553659 89.940385 67.553659 89.940386s23.862044 0.457956 41.299437 0.457955c1.835615 5.047941 3.212326 29.369837 30.286696 29.376474 27.07437 0.006637 30.286696-29.376474 30.286697-29.376474s198.240711-0.917807 214.761244-0.917807c0.917807 8.260267 5.047941 30.7456 32.121363 30.286696 27.07437-0.457956 28.909985-32.122311 28.909985-32.122311s9.178074-0.917807 36.711348 0c64.243674-11.931496 67.914904-87.187911 67.914904-87.187911s-0.917807-154.185007 0-231.277037zM630.926222 647.629748c0 12.163793-9.631289 22.025481-21.510637 22.025482H218.648652c-11.880296 0-21.510637-9.861689-21.510637-22.025482V388.818489c0-12.164741 9.629393-22.02643 21.510637-22.02643h390.766933c11.879348 0 21.510637 9.862637 21.510637 22.02643v258.811259z" fill="#03A5DD" p-id="12855"></path><path d="M238.280059 461.906489l114.722134-22.02643 8.718222 43.136-113.803378 22.025482zM595.292919 461.906489l-114.722134-22.02643-8.718222 43.136 113.803378 22.025482zM361.720415 568.826311s25.238756 45.430519 53.230933-14.68397c27.07437 58.737778 56.902163 15.570489 56.902163 15.570489l16.978489 11.044029s-31.663407 50.937363-73.421748 12.3904c-35.333689 38.546015-72.503941-12.292741-72.503941-12.29274l18.814104-12.028208z" fill="#03A5DD" p-id="12856"></path><path d="M764.563911 314.604089l81.988267-30.592948s-6.122193 244.125393 11.6224 284.505126c58.73683-9.785837 180.49517 18.9696 197.016652 55.68 13.457067 37.937304-32.431407 101.568474-234.339556 111.358103-6.728059-89.332622-7.341511-186.919822-56.287763-420.950281z" fill="#03A5DD" p-id="12857"></path><path d="M1086.55597 704.960474l41.608534-6.119348s-13.457067-178.658607-20.803319-184.164504c-7.342459-5.506844-51.395319 4.894341-54.453096 5.506845-3.063467 0.609659 33.647881 184.777007 33.647881 184.777007zM1048.009956 495.711763l21.41677-3.67123s-9.785837-66.691793-10.708385-70.363022c-4.399407-0.666548-24.7808 5.506844-24.7808 5.506845l14.072415 68.527407zM1069.426726 419.231289s24.474548-1.225007 27.531378 0c1.436444 5.204385 6.1184 71.587081 6.1184 71.587081s-20.192711-1.836563-25.085156 0c-2.449067-11.626193-8.564622-71.587081-8.564622-71.587081z" fill="#03A5DD" p-id="12858"></path><path d="M1109.194904 339.692089s30.591052 152.215704 45.27597 343.852563c18.3552 3.67123 36.711348 0 36.711348 0s-25.698607-335.285096-25.698607-343.852563c0-8.570311-56.288711 0-56.288711 0z" fill="#03A5DD" p-id="12859"></path><path d="M1227.403378 711.156622l41.99917-2.166518s3.454104-179.131733-3.338429-185.306074c-6.792533-6.174341-51.625719 0.023704-54.730904 0.345126-3.103289 0.320474 16.070163 187.127467 16.070163 187.127466zM1208.769422 499.205689l21.666134-1.633659s-3.454104-67.318519-4.022045-71.059911c-4.318815-1.077096-25.1904 3.143111-25.1904 3.143111l7.546311 69.550459zM1237.304889 425.088s24.481185 1.09037 27.410015 2.59603c0.933926 5.316267-0.662756 71.843081-0.662756 71.843081s-19.931022-3.730963-24.974222-2.36563c-1.339733-11.804444-1.773037-72.073481-1.773037-72.073481z" fill="#03A5DD" p-id="12860"></path><path d="M1280.348919 314.604089l81.989214-30.592948s-6.122193 244.125393 11.623348 284.505126c58.737778-9.785837 180.494222 18.9696 197.015704 55.68 13.458015 37.937304-32.429511 101.568474-234.338607 111.358103-6.730904-89.332622-7.343407-186.919822-56.289659-420.950281z" fill="#03A5DD" p-id="12861"></path><path d="M1602.341926 704.960474l41.606637-6.119348s-13.457067-178.658607-20.800474-184.164504c-7.344356-5.506844-51.398163 4.894341-54.454993 5.506845-3.062519 0.609659 33.64883 184.777007 33.64883 184.777007zM1563.795911 495.711763l21.41677-3.67123s-9.786785-66.691793-10.708385-70.363022c-4.399407-0.666548-24.7808 5.506844-24.7808 5.506845l14.072415 68.527407zM1585.212681 419.231289s24.474548-1.225007 27.531378 0c1.436444 5.204385 6.1184 71.587081 6.1184 71.587081s-20.192711-1.836563-25.086103 0c-2.448119-11.626193-8.563674-71.587081-8.563675-71.587081z" fill="#03A5DD" p-id="12862"></path><path d="M1624.980859 339.692089s30.593896 152.215704 45.277867 343.852563c18.3552 3.67123 36.711348 0 36.711348 0s-25.697659-335.285096-25.697659-343.852563c0-8.570311-56.291556 0-56.291556 0z" fill="#03A5DD" p-id="12863"></path><path d="M1743.192178 711.156622l41.99917-2.166518s3.453156-179.131733-3.338429-185.306074c-6.793481-6.174341-51.628563 0.023704-54.733749 0.345126-3.103289 0.320474 16.073007 187.127467 16.073008 187.127466zM1724.553481 499.205689l21.668978-1.633659s-3.453156-67.318519-4.02394-71.059911c-4.31597-1.077096-25.192296 3.143111-25.192297 3.143111l7.547259 69.550459zM1753.088 425.088s24.482133 1.09037 27.410015 2.59603c0.939615 5.316267-0.658963 71.843081-0.658963 71.843081s-19.932919-3.730963-24.977067-2.36563c-1.337837-11.804444-1.773985-72.073481-1.773985-72.073481z" fill="#03A5DD" p-id="12864"></path></svg>