<?xml version="1.0" standalone="no"?><!DOCTYPE svg PUBLIC "-//W3C//DTD SVG 1.1//EN" "http://www.w3.org/Graphics/SVG/1.1/DTD/svg11.dtd"><svg t="1753924137309" class="icon" viewBox="0 0 1024 1024" version="1.1" xmlns="http://www.w3.org/2000/svg" p-id="6348" xmlns:xlink="http://www.w3.org/1999/xlink" width="1024" height="1024"><path d="M512 0c282.784 0 512 229.216 512 512s-229.216 512-512 512S0 794.784 0 512 229.216 0 512 0z m78.144 362.656c-13.952 0-26.88 7.424-33.888 19.52L400 653.184l-1.824 3.776a39.104 39.104 0 0 0 69.536 35.328l156.384-270.912 2.048-4.16a39.104 39.104 0 0 0-35.968-54.56z m148.576 34.176a38.976 38.976 0 0 0-60.512 15.584c-6.08 14.56-2.784 31.36 8.32 42.56l82.304 82.304-82.272 82.24-2.88 3.392a39.2 39.2 0 0 0 58.24 51.968l103.776-103.776 3.584-2.56c9.152-7.264 14.592-18.304 14.72-30.112a38.944 38.944 0 0 0-18.368-34.976l-103.68-103.712z m-418.816-22.08a39.168 39.168 0 0 0-37.824 10.144l-103.68 103.68-3.648 2.592a39.04 39.04 0 0 0-14.688 30.592c-0.544 14.08 6.528 27.36 18.528 34.752l103.616 103.584 3.296 2.976a38.976 38.976 0 0 0 52.096-2.976 39.104 39.104 0 0 0 0-55.296l-82.496-82.24h0.128l82.24-82.272 3.072-3.456a39.168 39.168 0 0 0-20.64-62.08z" fill="#2E9CFF" p-id="6349"></path></svg>