<?xml version="1.0" standalone="no"?><!DOCTYPE svg PUBLIC "-//W3C//DTD SVG 1.1//EN" "http://www.w3.org/Graphics/SVG/1.1/DTD/svg11.dtd"><svg t="1754013863666" class="icon" viewBox="0 0 1024 1024" version="1.1" xmlns="http://www.w3.org/2000/svg" p-id="29915" xmlns:xlink="http://www.w3.org/1999/xlink" width="1024" height="1024"><path d="M549.980449 1021.983957a234.47575 234.47575 0 0 1-117.858657-32.206781l-1.487081-1.177689a235.072578 235.072578 0 0 1-74.364031-67.956608l-166.203761-166.173819c-21.92696-23.184491-21.407978-59.593025 1.157728-82.158732 22.565706-22.555726 58.98422-23.044766 82.158731-1.117806l40.740032 40.460581V334.912603c0-32.546116 26.378222-58.924338 58.924338-58.924338s58.924338 26.378222 58.924338 58.924338v196.42444c0-32.546116 26.378222-58.924338 58.934318-58.924337 32.546116 0 58.924338 26.378222 58.924338 58.924337v39.282892c0-32.546116 26.378222-58.934318 58.924338-58.934318S667.689399 538.06384 667.689399 570.619935v39.282892c0-32.546116 26.378222-58.934318 58.924338-58.934318s58.924338 26.378222 58.924338 58.934318v176.773014c-0.099804 130.024776-105.542831 235.358018-235.557626 235.308116z m471.394703-490.646914c-0.039922 37.426536-21.338116 71.579497-54.942154 88.067134-33.604039 16.487637-73.655422 12.43559-103.277278-10.439508-29.621856-22.865118-43.674272-60.591066-36.228887-97.279052h-1.966141c0-173.559322-140.703814-314.273116-314.273116-314.273116-173.559322 0-314.273116 140.703814-314.273116 314.273116h-1.996082c8.014269 39.053343-8.383544 79.074785-41.478582 101.291177-33.105018 22.216392-76.350133 22.216392-109.455152 0-33.095038-22.216392-49.482871-62.237834-41.478582-101.281196h-1.996082C0.00998 229.639243 228.631222 1.008021 510.697557 1.008021s510.687576 228.631222 510.687576 510.687577h-1.966141c1.337375 6.437364 1.95616 13.044395 1.95616 19.641445zM510.697557 40.290913C251.226869 42.40676 41.408719 252.22491 39.282892 511.695598h3.932281c-9.441467 24.541827-1.477101 52.38717 19.521681 68.206118 20.998782 15.82893 49.95195 15.82893 70.950732 0 21.008762-15.82893 28.963149-43.664292 19.531661-68.206118h3.922301c0-206.235183 136.591885-353.546028 353.556009-353.546028 32.546116 0 58.924338-26.378222 58.924338-58.934319 0-32.546116-26.388203-58.924338-58.924338-58.924338z m0 0" fill="#7AE093" p-id="29916"></path></svg>