<?xml version="1.0" standalone="no"?><!DOCTYPE svg PUBLIC "-//W3C//DTD SVG 1.1//EN" "http://www.w3.org/Graphics/SVG/1.1/DTD/svg11.dtd"><svg t="1747136561902" class="icon" viewBox="0 0 1024 1024" version="1.1" xmlns="http://www.w3.org/2000/svg" p-id="58580" xmlns:xlink="http://www.w3.org/1999/xlink" width="512" height="512"><path d="M504.092444 1009.777778c202.922667 0 367.416889-178.204444 367.416889-398.023111 0-219.818667-164.494222-398.023111-367.416889-398.023111-202.922667 0-367.416889 178.204444-367.416888 398.023111 0 219.818667 164.494222 398.023111 367.416888 398.023111z" fill="#BE1931" p-id="58581"></path><path d="M442.851556 1009.777778c202.922667 0 367.416889-178.204444 367.416888-398.023111 0-219.818667-164.494222-398.023111-367.416888-398.023111-202.922667 0-367.416889 178.204444-367.416889 398.023111 0 219.818667 164.494222 398.023111 367.416889 398.023111z" fill="#A0041E" p-id="58582"></path><path d="M804.920889 390.855111c-46.734222 0-98.332444-23.466667-148.679111-46.336-60.416-27.477333-122.936889-55.921778-155.306667-31.658667l-33.194667-44.231111c58.595556-43.918222 136.248889-8.618667 211.370667 25.543111 57.543111 26.168889 117.105778 53.134222 151.523556 35.925334 18.887111-9.415111 32.853333-33.991111 41.500444-72.988445l54.016 12.003556c-12.629333 56.888889-35.811556 93.013333-70.826667 110.506667a111.331556 111.331556 0 0 1-50.403555 11.235555z" fill="#99AAB5" p-id="58583"></path><path d="M381.639111 1009.777778c202.922667 0 367.416889-178.204444 367.416889-398.023111 0-219.818667-164.494222-398.023111-367.416889-398.023111C178.716444 213.731556 14.222222 391.936 14.222222 611.754667 14.222222 831.573333 178.716444 1009.777778 381.639111 1009.777778z" fill="#DD2E44" p-id="58584"></path><path d="M366.307556 908.515556c143.729778 0 260.238222-132.864 260.238222-296.760889s-116.508444-296.760889-260.238222-296.760889c-143.729778 0-260.238222 132.864-260.238223 296.760889S222.577778 908.515556 366.307556 908.515556z" fill="#EA596E" p-id="58585"></path><path d="M899.157333 290.759111c-68.551111 0-110.620444-96.654222-110.620444-165.916444S829.895111 14.222222 899.157333 14.222222C968.419556 14.222222 1009.777778 55.580444 1009.777778 124.842667c0 69.290667-42.069333 165.916444-110.620445 165.916444z m0-221.240889c-38.229333 0-55.296 17.066667-55.296 55.296 0 53.418667 32.455111 110.620444 55.296 110.620445 22.840889 0 55.296-57.201778 55.296-110.620445 0.028444-38.229333-17.038222-55.296-55.296-55.296z" fill="#99AAB5" p-id="58586"></path></svg>