<?xml version="1.0" standalone="no"?><!DOCTYPE svg PUBLIC "-//W3C//DTD SVG 1.1//EN" "http://www.w3.org/Graphics/SVG/1.1/DTD/svg11.dtd"><svg t="1753843583951" class="icon" viewBox="0 0 1382 1024" version="1.1" xmlns="http://www.w3.org/2000/svg" p-id="45114" xmlns:xlink="http://www.w3.org/1999/xlink" width="1382" height="1024"><path d="M888.22128 209.038416l63.331012 0.56317c227.725417 0 393.706937 124.30695 393.706937 295.920169v220.506602c0 171.664416-165.98152 295.920168-393.706937 295.920169A16894.58414 16894.58414 0 0 1 677.339762 1023.945219c-91.847886 0-184.361337-0.511973-275.594855-1.945496-227.674219 0-393.706937-124.30695-393.706937-295.920168V505.521755c0-171.664416 166.032717-295.920168 394.372501-295.920169 86.011398-1.023945 173.917095-2.04789 263.153921-2.04789v-8.345154c0-34.046179-37.425198-61.641502-82.069209-61.641502h-64.918127C444.392225 137.618237 383.979457 92.257464 383.979457 37.01562 383.979457 16.792702 406.301463 0 433.231222 0c27.544126 0 49.149371 16.792702 49.149371 37.01562 0 14.796008 16.434321 26.622576 36.145266 26.622575h64.918127c99.117897 0.511973 179.80478 61.12953 180.470345 135.160769v9.369099c41.367387 0 82.734774 0.409578 124.306949 0.870353z m-288.342973 443.521872H530.915596v52.221206c0 20.274115-22.322006 37.01562-49.200568 37.01562-27.544126 0-49.200568-16.741504-49.200568-36.964423v-52.272403H362.98858c-26.878562 0-49.149371-16.280729-49.14937-37.01562 0-20.222918 22.270809-36.964422 49.14937-36.964422H432.616855v-51.811628c0-20.222918 21.656441-37.01562 49.200568-37.01562 26.878562 0 49.200568 16.792702 49.200568 37.01562v51.811628h68.911513c26.878562 0 49.200568 16.741504 49.200568 36.964422 0 20.734891-22.322006 37.01562-49.200568 37.01562z m278.87148-83.400338h6.553249c26.878562 0 49.200568-16.229532 49.200568-36.964422 0-20.222918-22.322006-37.01562-49.200568-37.01562h-6.553249c-27.595324 0-49.200568 16.792702-49.200568 37.01562 0 20.734891 21.605244 37.01562 49.149371 37.015619z m112.173199 169.71892h6.604446c26.878562 0 49.149371-16.280729 49.149371-37.01562 0-20.222918-22.270809-37.01562-49.149371-37.015619h-6.604446c-27.646521 0-49.149371 16.792702-49.149371 37.015619 0 20.734891 21.50285 37.01562 49.149371 37.01562z" fill="#FFC327" p-id="45115"></path></svg>