<?xml version="1.0" standalone="no"?><!DOCTYPE svg PUBLIC "-//W3C//DTD SVG 1.1//EN" "http://www.w3.org/Graphics/SVG/1.1/DTD/svg11.dtd"><svg t="1753849152853" class="icon" viewBox="0 0 1024 1024" version="1.1" xmlns="http://www.w3.org/2000/svg" p-id="40400" xmlns:xlink="http://www.w3.org/1999/xlink" width="1024" height="1024"><path d="M737.28 917.333333h-4.693333a85.333333 85.333333 0 0 1-80.64-90.24 504.746667 504.746667 0 0 0-234.666667-457.6A85.333333 85.333333 0 0 1 384 252.586667a85.333333 85.333333 0 0 1 115.84-33.92 674.56 674.56 0 0 1 322.56 617.173333A85.333333 85.333333 0 0 1 737.28 917.333333z" fill="#FFC107" p-id="40401"></path><path d="M446.08 816.213333A79.146667 79.146667 0 0 1 362.666667 737.066667c2.133333-182.4-187.093333-286.08-189.013334-287.146667a81.28 81.28 0 0 1-33.066666-110.933333 82.56 82.56 0 0 1 112-32.64c11.52 6.186667 277.333333 151.04 276.053333 431.573333a79.573333 79.573333 0 0 1-82.56 78.293333z" fill="#2196F3" p-id="40402"></path><path d="M736 917.333333a86.4 86.4 0 0 1-78.506667-122.666666 682.666667 682.666667 0 0 0 5.12-561.493334 86.4 86.4 0 1 1 153.386667-80 853.333333 853.333333 0 0 1-1.493333 713.813334A86.613333 86.613333 0 0 1 736 917.333333z" fill="#4CAF50" p-id="40403"></path><path d="M446.08 823.893333a83.626667 83.626667 0 0 1-47.573333-14.933333 82.56 82.56 0 0 1-20.053334-114.986667c103.68-147.626667 1.493333-366.08 0-368.213333a82.56 82.56 0 1 1 149.333334-72.746667c5.973333 12.373333 147.413333 306.773333-13.44 535.893334a82.986667 82.986667 0 0 1-68.266667 34.986666z" fill="#F44336" p-id="40404"></path></svg>