<?xml version="1.0" standalone="no"?><!DOCTYPE svg PUBLIC "-//W3C//DTD SVG 1.1//EN" "http://www.w3.org/Graphics/SVG/1.1/DTD/svg11.dtd"><svg t="1753878423415" class="icon" viewBox="0 0 1024 1024" version="1.1" xmlns="http://www.w3.org/2000/svg" p-id="6722" xmlns:xlink="http://www.w3.org/1999/xlink" width="512" height="512"><path d="M0 0h1024v1024H0V0z" fill="#C4C4C4" fill-opacity="0" opacity=".8" p-id="6723"></path><path d="M668.785778 236.743111a300.885333 300.885333 0 0 1 137.614222 183.950222h-10.695111l-8.760889 0.170667a184.348444 184.348444 0 0 0-67.783111 15.872l-121.059556 49.834667 2.076445 2.275555 31.744 19.057778 5.944889 3.498667c-10.24 5.688889-20.906667 11.662222-32.028445 17.92l-9.500444 5.319111-11.264-6.997334-34.389334-21.361777 43.946667-18.972445-199.452444-121.799111-8.248889-4.835555a241.976889 241.976889 0 0 0-108.600889-30.577778L268.8 329.955556h-3.584l5.432889-8.106667a296.163556 296.163556 0 0 1 170.808889-118.300445 300.885333 300.885333 0 0 1 227.328 33.223112z" fill="#0364B8" opacity=".8" p-id="6724"></path><path d="M268.8 329.927111c44.600889 0 88.32 12.288 126.378667 35.584l199.452444 121.799111-89.088 38.4-176.241778 74.808889-80.099555 32.028445-178.005334 74.752 1.194667 1.678222-1.194667 0.113778a248.206222 248.206222 0 0 1-42.382222-125.667556L28.444444 573.781333A240.497778 240.497778 0 0 1 265.216 329.955556z" fill="#0F78D4" opacity=".8" p-id="6725"></path><path d="M808.163556 420.693333c27.847111 1.848889 55.04 9.102222 80.099555 21.390223a195.214222 195.214222 0 0 1 80.128 265.216l-3.697778-1.137778-168.988444-100.323556-49.834667-30.264889-113.948444-67.640889-31.744-19.057777-2.076445-2.275556 121.059556-49.863111a184.348444 184.348444 0 0 1 76.544-16.014222z" fill="#1490DF" opacity=".8" p-id="6726"></path><path d="M745.870222 575.573333l-113.948444-67.640889-35.584-21.361777-90.794667 39.168-176.241778 74.752-80.099555 32.056889-178.005334 74.752a242.232889 242.232889 0 0 0 197.575112 103.253333h525.141333a197.859556 197.859556 0 0 0 172.686222-103.253333L795.704889 605.866667l-49.834667-30.264889z" fill="#28A8EA" opacity=".8" p-id="6727"></path><path d="M745.870222 575.573333l-113.948444-67.640889-35.584-21.361777-90.794667 39.168-176.241778 74.752-80.099555 32.056889-178.005334 74.752a242.232889 242.232889 0 0 0 197.575112 103.253333h525.141333a197.859556 197.859556 0 0 0 172.686222-103.253333L795.704889 605.866667l-49.834667-30.264889z" fill="#28A8EA" opacity=".8" p-id="6728"></path></svg>