<?xml version="1.0" standalone="no"?><!DOCTYPE svg PUBLIC "-//W3C//DTD SVG 1.1//EN" "http://www.w3.org/Graphics/SVG/1.1/DTD/svg11.dtd"><svg t="1754013782531" class="icon" viewBox="0 0 1024 1024" version="1.1" xmlns="http://www.w3.org/2000/svg" p-id="21668" xmlns:xlink="http://www.w3.org/1999/xlink" width="1024" height="1024"><path d="M904.06301 673.904895c-106.159372-61.954017-374.747724-208.932288-541.016704-301.636541-40.546772-22.616693-157.349294-4.656378-227.588036 91.857639-104.49638 143.62205 48.075591 291.265518 149.729767 292.68662 101.654175 1.451339 506.154341 2.056063 506.154341 2.056063 52.066773-1.028032 112.720632-74.622994 112.720632-84.963781z" fill="#0166B7" p-id="21669"></path><path d="M146.948034 674.50962s531.552766-254.074966 624.045367-242.9178c92.4926 11.187402 156.50268 87.412915 152.451027 173.797798-4.08189 86.384884-79.279372 148.369137-132.132286 153.479058-52.852914 5.079685-506.124104-2.056063-506.124105-2.056063s-84.359057-9.131339-138.209766-82.302993z" fill="#218CC4" fill-opacity=".746" p-id="21670"></path><path d="M363.046306 372.268354s54.274017-110.543624 205.001579-108.941105c156.925987 1.693228 202.945516 168.26457 202.945516 168.264571-45.777639-0.725669-107.882837 21.709607-198.047248 59.323465 0 0-74.108978-44.205355-209.899847-118.646931z" fill="#034580" p-id="21671"></path><path d="M230.460477 329.181739h212.560634c31.143308 0 56.239371 25.096063 56.239371 56.239371v212.560634c0 31.143308-25.096063 56.239371-56.239371 56.239371h-212.560634c-31.143308 0-56.239371-25.096063-56.239371-56.239371v-212.560634c0-31.143308 25.096063-56.239371 56.239371-56.239371z" fill="#3997C8" fill-opacity=".769" p-id="21672"></path><path d="M336.740794 423.488512c-37.976694 0-67.910553 33.290079-67.910552 72.748348 0 39.458268 29.933859 72.748348 67.910552 72.748348 37.946457 0 67.910553-33.259843 67.910553-72.748348 0-39.458268-29.933859-72.748348-67.910553-72.748348z m0 25.851969c22.737638 0 42.028347 20.258268 42.028347 46.896379 0 26.607875-19.290709 46.866143-42.028347 46.866143-22.767874 0-42.028347-20.258268-42.028347-46.866143s19.260473-46.866143 42.028347-46.866142z" fill="#FFFFFF" p-id="21673"></path></svg>