<?xml version="1.0" standalone="no"?><!DOCTYPE svg PUBLIC "-//W3C//DTD SVG 1.1//EN" "http://www.w3.org/Graphics/SVG/1.1/DTD/svg11.dtd"><svg t="1753519230431" class="icon" viewBox="0 0 1126 1024" version="1.1" xmlns="http://www.w3.org/2000/svg" p-id="11165" xmlns:xlink="http://www.w3.org/1999/xlink" width="1126" height="1024"><path d="M1076.887912 389.345055L741.556044 50.637363C707.797802 16.879121 663.912088 0 620.026374 0s-87.771429 16.879121-121.529671 50.637363L163.164835 389.345055c-33.758242 33.758242-49.512088 77.643956-49.512088 122.654945 0 43.885714 16.879121 88.896703 49.512088 122.654945l335.331868 338.707692c33.758242 33.758242 77.643956 50.637363 121.529671 50.637363s87.771429-16.879121 121.52967-50.637363l335.331868-338.707692c33.758242-33.758242 49.512088-77.643956 49.512088-122.654945 0-43.885714-16.879121-88.896703-49.512088-122.654945z" fill="#FFE777" p-id="11166"></path><path d="M629.028571 50.637363l335.331869 338.707692c33.758242 33.758242 49.512088 77.643956 49.512087 122.654945 0 43.885714-16.879121 88.896703-49.512087 122.654945L629.028571 973.362637c-33.758242 33.758242-77.643956 50.637363-121.52967 50.637363-43.885714 0-87.771429-16.879121-121.52967-50.637363L50.637363 634.654945c-33.758242-33.758242-49.512088-77.643956-49.512088-122.654945 0-43.885714 16.879121-88.896703 49.512088-122.654945L385.969231 50.637363c33.758242-33.758242 77.643956-50.637363 121.52967-50.637363 43.885714 0 87.771429 16.879121 121.52967 50.637363zM945.230769 408.474725L609.898901 68.641758c-28.131868-28.131868-65.265934-42.76044-102.4-42.760439S433.230769 40.50989 405.098901 68.641758L69.767033 408.474725c-28.131868 28.131868-42.76044 66.391209-42.76044 103.525275 0 37.134066 14.628571 75.393407 42.76044 103.525275L405.098901 954.232967c28.131868 28.131868 65.265934 42.76044 102.4 42.76044s74.268132-14.628571 102.4-42.76044L945.230769 615.525275c28.131868-28.131868 42.76044-66.391209 42.76044-103.525275 0-37.134066-14.628571-75.393407-42.76044-103.525275z" fill="#377DFF" p-id="11167"></path><path d="M726.927473 160.914286v292.571428c0 6.751648-5.626374 12.378022-12.378022 12.378022h-1.125275c-6.751648 0-12.378022-5.626374-12.378022-12.378022v-292.571428c0-6.751648 5.626374-12.378022 12.378022-12.378022h1.125275c6.751648 0 12.378022 5.626374 12.378022 12.378022zM726.927473 722.426374v59.63956c0 6.751648-5.626374 12.378022-12.378022 12.378022h-1.125275c-6.751648 0-12.378022-5.626374-12.378022-12.378022v-59.63956c0-6.751648 5.626374-12.378022 12.378022-12.378022h1.125275c6.751648 0 12.378022 5.626374 12.378022 12.378022zM533.38022 531.12967v340.958242c0 6.751648-5.626374 12.378022-12.378022 12.378022h-1.125275c-6.751648 0-12.378022-5.626374-12.378022-12.378022V531.12967c0-6.751648 5.626374-12.378022 12.378022-12.378022h1.125275c6.751648-1.125275 12.378022 4.501099 12.378022 12.378022zM533.38022 31.507692v237.432967c0 6.751648-5.626374 12.378022-12.378022 12.378022h-1.125275c-6.751648 0-12.378022-5.626374-12.378022-12.378022V31.507692c0-6.751648 5.626374-12.378022 12.378022-12.378022h1.125275c6.751648-1.125275 12.378022 5.626374 12.378022 12.378022zM339.832967 226.18022v340.958242c0 6.751648-5.626374 12.378022-12.378022 12.378022H326.32967c-6.751648 0-12.378022-5.626374-12.378022-12.378022V226.18022c0-6.751648 5.626374-12.378022 12.378022-12.378022h1.125275c6.751648-1.125275 12.378022 4.501099 12.378022 12.378022zM339.832967 827.076923v59.639561c0 6.751648-5.626374 12.378022-12.378022 12.378021H326.32967c-6.751648 0-12.378022-5.626374-12.378022-12.378021v-59.639561c0-6.751648 5.626374-12.378022 12.378022-12.378022h1.125275c6.751648 0 12.378022 5.626374 12.378022 12.378022z" fill="#377DFF" p-id="11168"></path><path d="M630.153846 591.894505a84.395604 84.395604 0 1 0 168.791209 0 84.395604 84.395604 0 1 0-168.791209 0Z" fill="#377DFF" p-id="11169"></path><path d="M436.606593 400.597802a84.395604 84.395604 0 1 0 168.791209 0 84.395604 84.395604 0 1 0-168.791209 0Z" fill="#377DFF" p-id="11170"></path><path d="M243.059341 697.67033a84.395604 84.395604 0 1 0 168.791208 0 84.395604 84.395604 0 1 0-168.791208 0Z" fill="#377DFF" p-id="11171"></path></svg>