<?xml version="1.0" standalone="no"?><!DOCTYPE svg PUBLIC "-//W3C//DTD SVG 1.1//EN" "http://www.w3.org/Graphics/SVG/1.1/DTD/svg11.dtd"><svg t="1754013518529" class="icon" viewBox="0 0 1024 1024" version="1.1" xmlns="http://www.w3.org/2000/svg" p-id="5639" xmlns:xlink="http://www.w3.org/1999/xlink" width="1024" height="1024"><path d="M64.92 45.81C71.27 42 78.49 39.28 86 39.65c135.38 0.04 270.76-0.07 406.14 0.05 0.07 150.81 0.06 301.63 0 452.44-150.81 0.06-301.63 0.07-452.44 0-0.13-134.71 0-269.43-0.06-404.14-0.98-17.54 10.93-33.34 25.28-42.19z" fill="#F35325" p-id="5640"></path><path d="M531.87 39.7c133.38-0.12 266.75-0.01 400.13-0.06 27.8-2.47 53.06 24.08 52.16 51.37 0.01 133.71 0.06 267.42-0.02 401.13-150.76 0.06-301.52 0.06-452.28 0-0.05-150.81-0.08-301.63 0.01-452.44z" fill="#81BC06" p-id="5641"></path><path d="M39.7 531.88c150.81-0.1 301.63-0.07 452.44-0.02 0.05 150.81 0.08 301.63-0.02 452.44-134.71 0.13-269.41 0-404.12 0.06-17.51 0.98-33.27-10.9-42.15-25.19-3.83-6.38-6.56-13.63-6.2-21.17 0.04-135.38-0.07-270.75 0.05-406.12z" fill="#05A6F0" p-id="5642"></path><path d="M531.87 531.86c150.75-0.07 301.51-0.07 452.26 0 0.1 133.38 0.02 266.76 0.04 400.14 1.25 25.04-19.29 49.58-44.22 52.27-136.02 0.15-272.05 0.1-408.07 0.02-0.11-150.81-0.08-301.62-0.01-452.43z" fill="#FFBA08" p-id="5643"></path></svg>