<?xml version="1.0" standalone="no"?><!DOCTYPE svg PUBLIC "-//W3C//DTD SVG 1.1//EN" "http://www.w3.org/Graphics/SVG/1.1/DTD/svg11.dtd"><svg t="1753843504684" class="icon" viewBox="0 0 1024 1024" version="1.1" xmlns="http://www.w3.org/2000/svg" p-id="36035" xmlns:xlink="http://www.w3.org/1999/xlink" width="1024" height="1024"><path d="M890.688 774.4c0 8.256-6.048 13.76-13.184 13.76v-0.032c-7.36 0.064-13.312-5.472-13.312-13.728a13.12 13.12 0 0 1 13.312-13.76c7.136 0 13.184 5.536 13.184 13.76z m5.376 0c0-11.296-8.8-17.888-18.56-17.888-9.888 0-18.656 6.592-18.656 17.92 0 11.264 8.768 17.856 18.656 17.856 9.76 0 18.56-6.592 18.56-17.888z m-21.664 1.504h2.016l4.608 8.096h5.024l-5.12-8.416c2.656-0.192 4.832-1.44 4.832-4.992 0-4.416-3.04-5.824-8.192-5.824h-7.456v19.232h4.288v-8.096z m0-3.264v-4.608h2.976c1.632 0 3.84 0.128 3.84 2.112 0 2.144-1.152 2.496-3.04 2.496h-3.776z m-103.424-96.736l23.168 63.36h-47.04l23.872-63.36z m-24.8-24.672l-53.344 135.2h37.664l8.448-23.872h63.168l8 23.872h40.896l-53.76-135.2h-51.04z m-107.136 135.264h38.24V651.2H639.04v135.296z m-265.408-135.36L341.76 758.4l-30.56-107.2H269.92L313.6 786.464h55.072l44-135.36h-39.008z m154.56 29.504h16.416c23.84 0 39.264 10.688 39.264 38.464 0 27.776-15.424 38.496-39.264 38.496h-16.448V680.64z m-37.952-29.44v135.296h61.984c33.056 0 43.84-5.504 55.488-17.824 8.224-8.64 13.568-27.616 13.568-48.352 0-19.04-4.512-36-12.384-46.56-14.144-18.88-34.56-22.592-64.992-22.592H490.24z m-362.112-0.192v135.488h38.56v-102.912h29.856c9.92 0 16.96 2.496 21.728 7.584 6.016 6.4 8.512 16.8 8.512 35.84v59.456h37.344v-74.848c0-53.44-34.048-60.64-67.392-60.64H128.128z m300.64 0.16v135.328h38.208v-135.36H428.8v0.064zM230.848 381.76S280 309.216 378.208 301.76v-26.336c-108.736 8.736-202.912 100.864-202.912 100.864s53.312 154.176 202.912 168.288v-27.968c-109.76-13.824-147.36-134.816-147.36-134.816z m147.36 79.136v25.632c-82.976-14.784-105.984-101.024-105.984-101.024s39.84-44.096 105.984-51.264v28.096h-0.128c-34.72-4.16-61.856 28.256-61.856 28.256s15.2 54.624 61.984 70.304z m0-234.048v48.544c3.2-0.256 6.4-0.448 9.6-0.544 123.616-4.16 204.16 101.376 204.16 101.376s-92.48 112.512-188.896 112.512c-8.32 0-16.64-0.736-24.864-2.208v30.016c6.848 0.896 13.76 1.344 20.704 1.344 89.696 0 154.56-45.792 217.376-100.032 10.4 8.352 53.056 28.64 61.824 37.536-59.712 49.984-198.912 90.304-277.824 90.304-7.616 0-14.912-0.48-22.08-1.152v42.176h340.928V226.848H378.208z m0 107.392V301.728c3.136-0.224 6.336-0.416 9.6-0.512 88.896-2.784 147.2 76.384 147.2 76.384s-62.976 87.52-130.528 87.52c-9.728 0-18.432-1.568-26.272-4.224v-98.56c34.592 4.16 41.568 19.488 62.4 54.144l46.24-39.008s-33.76-44.288-90.72-44.288c-6.176 0-12.096 0.416-17.92 1.056z" fill="#808182" p-id="36036"></path></svg>