<?xml version="1.0" standalone="no"?><!DOCTYPE svg PUBLIC "-//W3C//DTD SVG 1.1//EN" "http://www.w3.org/Graphics/SVG/1.1/DTD/svg11.dtd"><svg t="1754014445187" class="icon" viewBox="0 0 1378 1024" version="1.1" xmlns="http://www.w3.org/2000/svg" p-id="44585" xmlns:xlink="http://www.w3.org/1999/xlink" width="1378" height="1024"><path d="M1368.477538 982.843077c0 14.769231-10.850462 24.694154-23.709538 24.694154v-0.098462c-13.193846 0.098462-23.867077-9.826462-23.867077-24.615384 0-14.769231 10.653538-24.654769 23.867077-24.65477 12.859077 0 23.709538 9.885538 23.709538 24.65477z m9.609847 0c0-20.302769-15.753846-32.098462-33.319385-32.098462-17.683692 0-33.437538 11.795692-33.437538 32.098462 0 20.263385 15.753846 32.098462 33.437538 32.098461 17.565538 0 33.319385-11.835077 33.319385-32.098461z m-38.852923 2.697846h3.584l8.270769 14.513231h9.058461l-9.156923-15.123692c4.726154-0.334769 8.625231-2.579692 8.625231-8.96 0-7.916308-5.454769-10.456615-14.690462-10.456616h-13.390769v34.540308h7.699693v-14.513231z m0-5.848615v-8.310154h5.356307c2.914462 0 6.872615 0.236308 6.872616 3.780923 0 3.859692-2.048 4.529231-5.474462 4.529231h-6.754461z m-185.560616-173.607385l41.550769 113.664H1110.843077l42.830769-113.664z m-44.504615-44.268308l-95.744 242.609231h67.603692l15.163077-42.870154h113.309538l14.336 42.870154h73.393231l-96.472615-242.628923-91.569231 0.019692z m-192.216616 242.707693h68.588308V761.757538l-68.608-0.019692V1004.504615zM440.713846 761.698462l-57.245538 192.43323-54.823385-192.393846-74.003692-0.019692 78.296615 242.786461h98.816l78.946462-242.806153H440.713846z m277.267692 52.873846h29.499077c42.771692 0 70.439385 19.2 70.439385 69.04123 0 49.841231-27.667692 69.041231-70.439385 69.041231H717.981538v-138.082461z m-68.01723-52.854154V1004.504615h111.202461c59.273846 0 78.611692-9.846154 99.524923-31.940923 14.769231-15.517538 24.339692-49.565538 24.339693-86.784 0-34.146462-8.073846-64.571077-22.193231-83.534769-25.403077-33.890462-62.011077-40.526769-116.637539-40.526769h-96.236307zM0.196923 761.403077V1004.504615h69.179077v-184.615384l53.602462 0.019692c17.762462 0 30.404923 4.430769 38.951384 13.548308 10.830769 11.559385 15.261538 30.188308 15.261539 64.295384v106.732308h67.032615v-134.301538c0-95.881846-61.105231-108.8-120.891077-108.8H0.196923z m539.411692 0.334769l0.019693 242.786462h68.568615V761.698462h-68.588308z" fill="#000000" p-id="44586"></path><path d="M184.536615 278.331077s88.221538-130.166154 264.388923-143.635692V87.433846C253.833846 103.128615 84.834462 268.406154 84.834462 268.406154s95.704615 276.657231 364.110769 301.981538v-50.195692C251.963077 495.399385 184.516923 278.331077 184.516923 278.331077z m264.388923 142.001231v45.981538c-148.854154-26.545231-190.168615-181.267692-190.168615-181.267692s71.483077-79.163077 190.168615-92.022154v50.451692l-0.216615-0.019692c-62.306462-7.483077-110.985846 50.707692-110.985846 50.707692s27.293538 97.988923 111.202461 126.168616z m0-419.977846v87.099076c5.730462-0.433231 11.460923-0.787692 17.211077-0.984615 221.833846-7.483077 366.375385 181.917538 366.375385 181.917539s-166.006154 201.846154-338.963692 201.846153a254.818462 254.818462 0 0 1-44.62277-3.938461v53.878154c12.327385 1.575385 24.753231 2.382769 37.179077 2.402461 160.945231 0 277.326769-82.195692 390.025847-179.475692 18.688 14.966154 95.192615 51.377231 110.907076 67.308308C879.891692 500.125538 630.153846 572.435692 488.566154 572.435692c-13.646769 0-26.761846-0.827077-39.640616-2.067692v75.697231h611.741539V0.354462H448.925538z m0 192.669538V134.695385c5.671385-0.393846 11.382154-0.708923 17.211077-0.886154 159.527385-5.021538 264.172308 137.058462 264.172308 137.058461s-113.033846 157.006769-234.220308 157.00677c-17.447385 0-33.083077-2.796308-47.163077-7.542154v-176.856616c62.109538 7.483077 74.594462 34.934154 111.931077 97.161846l83.042462-70.006153s-60.612923-79.497846-162.796308-79.497847c-11.106462 0-21.740308 0.787692-32.177231 1.890462z" fill="#77B900" p-id="44587"></path></svg>