<?xml version="1.0" standalone="no"?><!DOCTYPE svg PUBLIC "-//W3C//DTD SVG 1.1//EN" "http://www.w3.org/Graphics/SVG/1.1/DTD/svg11.dtd"><svg t="1746863432771" class="icon" viewBox="0 0 1024 1024" version="1.1" xmlns="http://www.w3.org/2000/svg" p-id="59226" xmlns:xlink="http://www.w3.org/1999/xlink" width="48" height="48"><path d="M512 512m-512 0a512 512 0 1 0 1024 0 512 512 0 1 0-1024 0Z" fill="#00C9B8" p-id="59227"></path><path d="M767.926857 768H768v36.571429H365.714286v-0.512a33.28 33.28 0 0 1-6.034286 0.512c-6.436571 0-12.873143-1.572571-17.700571-6.290286l-131.766858-128.914286c-35.364571-34.56-36.973714-91.172571-1.645714-124.16a92.196571 92.196571 0 0 1 127.012572 1.572572l16.091428 15.725714V343.990857C351.634286 295.314286 391.789714 256 439.990857 256c48.237714 0 88.393143 39.314286 88.393143 88.027429v138.313142h184.868571c30.500571 0 56.246857 25.124571 54.637715 55.003429V768z m-48.237714 0v-227.547429c0-4.681143-3.181714-9.398857-8.045714-9.398857h-208.932572a24.429714 24.429714 0 0 1-24.100571-23.588571V345.6c0-22.016-17.664-40.886857-40.228572-40.886857-22.454857 0-40.118857 18.870857-40.118857 40.886857v273.481143a23.405714 23.405714 0 0 1-6.436571 17.261714 23.588571 23.588571 0 0 1-33.755429 0l-56.246857-54.966857c-16.091429-15.725714-41.801143-17.298286-57.856-1.572571-16.091429 14.153143-14.482286 40.886857 1.572571 56.576l131.803429 128.877714a22.966857 22.966857 0 0 1 2.523429 2.742857h339.821714zM438.857143 146.285714c90.88 0 164.571429 71.643429 164.571428 160a23.771429 23.771429 0 0 1-23.515428 22.857143 23.771429 23.771429 0 0 1-23.515429-22.857143c0-62.464-53.248-114.285714-117.540571-114.285714-64.256 0-117.540571 51.821714-117.540572 114.285714A23.771429 23.771429 0 0 1 297.801143 329.142857a23.771429 23.771429 0 0 1-23.515429-22.857143c0-42.422857 17.334857-83.163429 48.201143-113.152A166.985143 166.985143 0 0 1 438.893714 146.285714z" fill="#FFFFFF" p-id="59228"></path></svg>