<?xml version="1.0" standalone="no"?><!DOCTYPE svg PUBLIC "-//W3C//DTD SVG 1.1//EN" "http://www.w3.org/Graphics/SVG/1.1/DTD/svg11.dtd"><svg t="1753846404566" class="icon" viewBox="0 0 1024 1024" version="1.1" xmlns="http://www.w3.org/2000/svg" p-id="24767" xmlns:xlink="http://www.w3.org/1999/xlink" width="1024" height="1024"><path d="M328.06 171H634c131.36 0 238 106.64 238 238v375.97c0 50.24-40.79 91.03-91.03 91.03H328.06c-50.24 0-91.03-40.79-91.03-91.03V262.03c0-50.24 40.79-91.03 91.03-91.03z" fill="#B9A5FF" p-id="24768"></path><path d="M123.9 421m80.2 0l277.44 0q80.2 0 80.2 80.2l0 174.78q0 80.2-80.2 80.2l-277.44 0q-80.2 0-80.2-80.2l0-174.78q0-80.2 80.2-80.2Z" fill="#7954E2" p-id="24769"></path><path d="M311.649474 708.543842m-26.162951-26.162951l0 0q-26.162951-26.162951 0-52.325902l135.057395-135.057395q26.162951-26.162951 52.325902 0l0 0q26.162951 26.162951 0 52.325902l-135.057395 135.057395q-26.162951 26.162951-52.325902 0Z" fill="#E4E3FF" p-id="24770"></path><path d="M363.983082 656.212352m-26.162951 26.162951l0 0q-26.162951 26.162951-52.325902 0l-76.367532-76.367532q-26.162951-26.162951 0-52.325902l0 0q26.162951-26.162951 52.325902 0l76.367532 76.367532q26.162951 26.162951 0 52.325902Z" fill="#E4E3FF" p-id="24771"></path></svg>