<?xml version="1.0" standalone="no"?><!DOCTYPE svg PUBLIC "-//W3C//DTD SVG 1.1//EN" "http://www.w3.org/Graphics/SVG/1.1/DTD/svg11.dtd"><svg t="1753925182044" class="icon" viewBox="0 0 1024 1024" version="1.1" xmlns="http://www.w3.org/2000/svg" p-id="10129" xmlns:xlink="http://www.w3.org/1999/xlink" width="1024" height="1024"><path d="M708.245 176.65666667h-375l-187.5 324.7575 187.5 324.765h375l187.5-324.765-187.5-324.7575z m-18.75 617.04h-337.5l-168.75-292.29 168.75-292.2825h337.5l168.75 292.2825-168.75 292.29z" fill="#5E7A52" p-id="10130"></path><path d="M651.995 274.08166667H389.5025l-131.25 227.3325 131.25 227.34h262.4925l131.25-227.34-131.25-227.3325z m-18.75 422.19H408.2525l-112.5-194.8575 112.5-194.85h224.9925l112.5 194.85-112.5 194.8575z" fill="#5E7A52" p-id="10131"></path><path d="M595.745 371.50666667H445.7525l-75 129.9 75 129.9075h149.9925l75-129.9075-75-129.9z m-18.75 227.34H464.5025l-56.25-97.4325 56.25-97.425h112.4925l56.25 97.425-56.25 97.4325z" fill="#5E7A52" p-id="10132"></path><path d="M502.0025 533.89666667l-18.75-32.4825 18.75-32.475h37.4925l18.75 32.475-18.75 32.4825z" fill="#5E7A52" p-id="10133"></path><path d="M70.7525 490.16416667h900v22.5h-900z" fill="#5E7A52" p-id="10134"></path><path d="M285.9875 885.50416667l450-779.4 19.485 11.25-450 779.4z" fill="#5E7A52" p-id="10135"></path><path d="M735.9875 896.75416667l-450-779.4 19.485-11.25 450 779.4z" fill="#5E7A52" p-id="10136"></path></svg>