<?xml version="1.0" standalone="no"?><!DOCTYPE svg PUBLIC "-//W3C//DTD SVG 1.1//EN" "http://www.w3.org/Graphics/SVG/1.1/DTD/svg11.dtd"><svg t="1753843552327" class="icon" viewBox="0 0 1024 1024" version="1.1" xmlns="http://www.w3.org/2000/svg" p-id="40607" xmlns:xlink="http://www.w3.org/1999/xlink" width="1024" height="1024"><path d="M21.0432 661.3504l193.416533 80.366933c9.728 43.776 39.543467 82.158933 83.524267 100.625067 71.9872 30.293333 154.965333-4.232533 184.900267-76.731733 7.799467-18.944 11.434667-38.843733 10.9056-58.6752l178.551466-128.494934c1.4336 0.0512 2.9184 0.1024 4.369067 0.1024 106.837333 0 193.6896-87.722667 193.6896-195.447466S783.5648 187.733333 676.7104 187.733333c-106.8032 0-193.6896 87.637333-193.6896 195.362134 0 0.853333 0 1.7408 0.0512 2.542933l-124.791467 182.545067a138.922667 138.922667 0 0 0-59.733333 10.615466 138.410667 138.410667 0 0 0-23.876267 12.6976L0.682667 477.9008l-0.0512 1.109333-0.6144-1.024C17.5616 211.080533 239.8208 0 511.453867 0 794.5216 0 1024 229.239467 1024 512c0 282.760533-229.4784 512-512.546133 512-231.082667 0-426.427733-152.712533-490.410667-362.6496z" fill="#6F6F6F" p-id="40608"></path><path d="M453.085867 752.9984c-23.176533 56.029867-87.108267 82.602667-142.677334 59.2896a108.8 108.8 0 0 1-56.149333-53.947733l63.044267 26.3168c40.977067 17.186133 87.995733-2.389333 105.028266-43.639467 17.1008-41.301333-2.286933-88.746667-43.264-105.9328l-65.1776-27.1872a107.741867 107.741867 0 0 1 80.469334 1.2288 108.680533 108.680533 0 0 1 58.897066 59.682133 110.216533 110.216533 0 0 1-0.170666 84.189867zM676.7104 513.297067c-71.133867 0-129.024-58.402133-129.024-130.2016 0-71.7312 57.890133-130.1504 129.024-130.1504 71.168 0 129.0752 58.4192 129.0752 130.1504 0 71.799467-57.9072 130.218667-129.0752 130.218666z m-96.699733-130.389334c0 54.016 43.434667 97.774933 96.9216 97.774934 53.538133 0 96.938667-43.758933 96.938666-97.792 0-53.998933-43.400533-97.792-96.938666-97.792-53.486933 0-96.9216 43.793067-96.9216 97.792z" fill="#6F6F6F" p-id="40609"></path></svg>