<?xml version="1.0" standalone="no"?><!DOCTYPE svg PUBLIC "-//W3C//DTD SVG 1.1//EN" "http://www.w3.org/Graphics/SVG/1.1/DTD/svg11.dtd"><svg t="1754013648564" class="icon" viewBox="0 0 1024 1024" version="1.1" xmlns="http://www.w3.org/2000/svg" p-id="11291" xmlns:xlink="http://www.w3.org/1999/xlink" width="1024" height="1024"><path d="M679.429 746.857l84-396q5.142-25.143-6-36t-29.429-4L234.286 501.143q-16.572 6.286-22.572 14.286t-1.428 15.142 18.285 11.143l126.286 39.429L648 396.57q12-8 18.286-3.428 4 2.857-2.286 8.571L426.857 616l-9.143 130.286q13.143 0 25.715-12.572l61.714-59.428 128 94.285q36.571 20.572 46.286-21.714zM1024 512q0 104-40.571 198.857T874.286 874.286 710.857 983.429 512 1024t-198.857-40.571-163.429-109.143T40.571 710.857 0 512t40.571-198.857 109.143-163.429T313.143 40.571 512 0t198.857 40.571 163.429 109.143 109.143 163.429T1024 512z" fill="#1296DB" p-id="11292"></path></svg>